<svg xmlns="http://www.w3.org/2000/svg" viewBox="0 0 512 512">
  <defs>
    <linearGradient id="g" x1="0%" y1="0%" x2="100%" y2="100%">
      <stop offset="0%" stop-color="#22c55e"/>
      <stop offset="100%" stop-color="#16a34a"/>
    </linearGradient>
  </defs>
  <rect width="512" height="512" rx="96" fill="url(#g)"/>
  <path d="M256 120c-75 0-136 61-136 136s61 136 136 136 136-61 136-136-61-136-136-136zm0 240c-57.4 0-104-46.6-104-104s46.6-104 104-104 104 46.6 104 104-46.6 104-104 104z" fill="white" opacity="0.95"/>
  <path d="M256 188c-37.5 0-68 30.5-68 68s30.5 68 68 68 68-30.5 68-68-30.5-68-68-68zm0 108c-22 0-40-18-40-40s18-40 40-40 40 18 40 40-18 40-40 40z" fill="white" opacity="0.9"/>
  <circle cx="256" cy="256" r="16" fill="white"/>
  <path d="M240 144h32v40h-32z" fill="white" opacity="0.7" rx="4"/>
  <path d="M240 328h32v40h-32z" fill="white" opacity="0.7" rx="4"/>
  <path d="M144 240v32h40v-32z" fill="white" opacity="0.7" rx="4"/>
  <path d="M328 240v32h40v-32z" fill="white" opacity="0.7" rx="4"/>
</svg>
